<?xml version="1.0" encoding="UTF-8"?>
<svg width="700pt" height="700pt" version="1.1" viewBox="0 0 700 700" xmlns="http://www.w3.org/2000/svg">
 <g>
  <path d="m480.67 541.33h-336c-14.852 0-29.098-5.8984-39.598-16.402-10.504-10.5-16.402-24.746-16.402-39.598v-373.33c0-14.852 5.8984-29.098 16.402-39.598 10.5-10.504 24.746-16.402 39.598-16.402h224c6.668 0 12.828 3.5586 16.164 9.332 3.3359 5.7773 3.3359 12.891 0 18.668-3.3359 5.7773-9.4961 9.332-16.164 9.332h-224c-4.9531 0-9.6992 1.9688-13.199 5.4688-3.5039 3.5-5.4688 8.25-5.4688 13.199v373.33c0 4.9531 1.9648 9.6992 5.4688 13.199 3.5 3.5039 8.2461 5.4688 13.199 5.4688h336c4.9492 0 9.6992-1.9648 13.199-5.4688 3.5-3.5 5.4648-8.2461 5.4648-13.199v-186.66c0-6.6719 3.5586-12.832 9.3359-16.168 5.7734-3.332 12.891-3.332 18.664 0 5.7773 3.3359 9.3359 9.4961 9.3359 16.168v186.66c0 14.852-5.9023 29.098-16.402 39.598-10.504 10.504-24.746 16.402-39.598 16.402z"/>
  <path d="m539.88 18.668c-18.969-0.054688-37.168 7.4883-50.531 20.941l-245.88 245.86c-2.0391 2.0547-3.5781 4.5547-4.5 7.3008l-37.332 112c-1.8945 5.6875-0.94141 11.941 2.5664 16.809 3.5039 4.8633 9.1328 7.75 15.129 7.7539 2.0039 0 3.9961-0.32422 5.8984-0.94922l112-37.332v-0.003906c2.7539-0.91797 5.25-2.4648 7.3008-4.5156l245.88-245.88c13.406-13.398 20.934-31.574 20.934-50.527s-7.5273-37.129-20.93-50.531-31.578-20.93-50.531-20.926z"/>
 </g>
</svg>
